<svg xmlns="http://www.w3.org/2000/svg" viewBox="0 0 2500.01 2500">
  <defs>
    <style>.cls-1{fill:#f3ba2f;}</style>
  </defs>
  <path class="cls-1" d="M764.48,1050.52,1250,565l485.75,485.73,282.5-282.5L1250,0,482,768l282.49,282.5M0,1250,282.51,967.45,565,1249.94,282.49,1532.45Zm764.48,199.48L1250,1935l485.74-485.73,282.65,282.35-.14.15L1250,2500,482,1732l282.49-282.5m1170.06-199.48,282.51-282.51L2500,1250l-282.51,282.51Z"/>
  <path class="cls-1" d="M1532.53,1249.85h.12L1250,967.31,1038.13,1179.18l-.08-.08L967.44,1249.71l-.4.4.4.4,282.65,282.66,282.65-282.66.08-.08-0.19-.18"/>
</svg> 